<?xml version="1.0" encoding="UTF-8"?>
<svg width="2400" height="2400" viewBox="0 0 2400 2400" fill="none" xmlns="http://www.w3.org/2000/svg">
  <path d="M1200 0C537.6 0 0 537.6 0 1200C0 1862.4 537.6 2400 1200 2400C1862.4 2400 2400 1862.4 2400 1200C2400 537.6 1862.4 0 1200 0Z" fill="#E2761B"/>
  <path d="M1843.2 1800L1656 2208L1200 2040L744 2208L556.8 1800L1200 1560L1843.2 1800Z" fill="#E4761B"/>
  <path d="M1200 1560L556.8 1800L744 2208L1200 2040V1560Z" fill="#D7C1B3"/>
  <path d="M1200 1560L1843.2 1800L1656 2208L1200 2040V1560Z" fill="#233447"/>
  <path d="M1200 1560L556.8 1800L744 2208L1200 2040V1560Z" fill="#CD6116"/>
  <path d="M1200 1560L1843.2 1800L1656 2208L1200 2040V1560Z" fill="#E4751F"/>
  <path d="M1200 1560L556.8 1800L744 2208L1200 2040V1560Z" fill="#F6851B"/>
  <path d="M1200 1560L1843.2 1800L1656 2208L1200 2040V1560Z" fill="#C0AD9E"/>
  <path d="M1200 1560L556.8 1800L744 2208L1200 2040V1560Z" fill="#161616"/>
  <path d="M1200 1560L1843.2 1800L1656 2208L1200 2040V1560Z" fill="#763D16"/>
</svg> 