<?xml version="1.0" encoding="UTF-8"?>
<svg width="2400" height="2400" viewBox="0 0 2400 2400" fill="none" xmlns="http://www.w3.org/2000/svg">
  <path d="M1200 0C537.6 0 0 537.6 0 1200C0 1862.4 537.6 2400 1200 2400C1862.4 2400 2400 1862.4 2400 1200C2400 537.6 1862.4 0 1200 0Z" fill="#3B99FC"/>
  <path d="M1200 600C900 600 600 900 600 1200C600 1500 900 1800 1200 1800C1500 1800 1800 1500 1800 1200C1800 900 1500 600 1200 600Z" fill="white"/>
  <path d="M1200 900C1050 900 900 1050 900 1200C900 1350 1050 1500 1200 1500C1350 1500 1500 1350 1500 1200C1500 1050 1350 900 1200 900Z" fill="#3B99FC"/>
</svg> 